<svg width="178" height="32" fill="none" xmlns="http://www.w3.org/2000/svg"><g clip-path="url(#a)" fill="#000"><path d="M119.79 13.42a26.13 26.13 0 0 0 5.81-.69v-.91c-.06-2.15-.1-4.3-.2-6.45a9.47 9.47 0 0 0-.4-2 3.145 3.145 0 0 1 .18-1.87c.07-.25.22-.64.58-.53a.904.904 0 0 1 .47.55c.147.56.241 1.132.28 1.71.13 2.65.23 5.3.34 7.94 0 .43.08.86.11 1.27 1.17.37 2.39-.26 3.47.4a1.004 1.004 0 0 1-.75.83c-.57.204-1.155.365-1.75.48-.91.18-1 .28-.94 1.2 0 .37.09.74.15 1.22h1.24c.56-.06 1 .08 1.14.67.094.224.204.442.33.65l-1.29.31-1.28.27a18.34 18.34 0 0 0 .35 5.84L130 21c.91.37 1.17 1 .8 1.76-.37.76-.68 1.54-1.11 2.26-.43.72-1 1.54-1.57 2.3-.17.24-.33.48-.51.71-.33.43-.63.43-1 0a1.999 1.999 0 0 1-.56-1.34v-2.1c0-1.83.08-3.66.14-5.49 0-.51-.09-.65-.58-.63l-5.23.26c-.146.018-.29.048-.43.09a5.727 5.727 0 0 0-.17 2.69c.254 1.818.328 3.657.22 5.49a1.105 1.105 0 0 1-.59 1.08c-.45.24-.72.16-.87-.32a4.086 4.086 0 0 1-.15-.85c-.16-1.33-.34-2.66-.45-4-.07-.93 0-1.86-.06-2.79v-1.27l-1.14-.06h-2.19c-.34 0-.67-.11-.67-.52 0-.41.29-.38.56-.42.43 0 .86-.13 1.3-.16.44-.03.82 0 1.22 0 .93-.07 1-.17.94-1.13 0-.5 0-1-.08-1.48 0 0 0-.1-.14-.27h-3.34c-.24-.53 0-.79.33-.93.3-.103.613-.167.93-.19h1.48c.7 0 .79-.12.74-.83-.12-1.51-.19-3-.33-4.52a11.71 11.71 0 0 0-1.36-4.39 2.21 2.21 0 0 0-1.25-1 1.31 1.31 0 0 0-1.84.81c-.17.61-.294 1.232-.37 1.86.003.23-.027.459-.09.68a1.06 1.06 0 0 1-.57.45c-.11 0-.38-.26-.44-.44a4.64 4.64 0 0 1 .15-3.32c.133-.288.294-.563.48-.82a1.574 1.574 0 0 1 1.24-.72 4.219 4.219 0 0 1 4 1.83c.15.21.29.44.45.65a6.104 6.104 0 0 1 1.13 3.41c.11 1.71.31 3.41.49 5.11 0 .34.15.67.24 1.08m6.27 3.31a3.709 3.709 0 0 0-.26-2.18h-5.35c-.56 0-.7.13-.69.66 0 .74.11 1.48.18 2.26a29.7 29.7 0 0 0 6.12-.76"/><path d="M127.16 28.82a1.115 1.115 0 0 1-.84-.47 2.471 2.471 0 0 1-.66-1.62v-2.11c0-1.83.08-3.66.14-5.49a.862.862 0 0 0 0-.19c-1.81.09-3.55.17-5.3.27h-.1a5.321 5.321 0 0 0-.09 2.25c.252 1.738.336 3.496.25 5.25V27a1.557 1.557 0 0 1-.82 1.46c-.193.11-.409.171-.63.18-.24 0-.67-.1-.87-.76A3.891 3.891 0 0 1 118 27l-.14-1.17c-.12-1-.24-2-.33-3-.05-.68-.05-1.37-.05-2V19.17h-2.89c-.81 0-1.1-.5-1.11-1-.01-.5.31-.78 1-.86l.39-.06.92-.11H117c.187.005.374-.026.55-.09.014-.19.014-.38 0-.57V15.14h-3.45l-.12-.26a1.174 1.174 0 0 1-.07-.94 1.002 1.002 0 0 1 .64-.58 3.685 3.685 0 0 1 1.06-.21h1.51c.11.011.22.011.33 0v-.34l-.12-1.71c-.06-.93-.12-1.87-.21-2.8a11.054 11.054 0 0 0-1.31-4.22 1.721 1.721 0 0 0-1-.82 1.613 1.613 0 0 0-.5-.09c-.23 0-.57.07-.79.63a7.172 7.172 0 0 0-.29 1.2c0 .19 0 .38-.08.56-.08.18 0 .13 0 .2.013.216-.036.43-.14.62a1.38 1.38 0 0 1-.84.65h-.12c-.4 0-.76-.48-.84-.74a5.15 5.15 0 0 1 .16-3.63c.148-.316.326-.617.53-.9a2 2 0 0 1 1.54-.86 4.679 4.679 0 0 1 4.4 2l.2.3c.073.118.153.231.24.34a6.635 6.635 0 0 1 1.22 3.66c.08 1.34.23 2.71.37 4l.13 1.1c.031.212.074.423.13.63a.206.206 0 0 1 0 .07 16.568 16.568 0 0 0 3.74-.42c.42-.08.85-.16 1.28-.22v-2.2c0-1.59-.07-3.18-.15-4.77a8.555 8.555 0 0 0-.38-1.86 3.555 3.555 0 0 1 .18-2.13c.06-.21.26-.84.88-.84a1 1 0 0 1 .24 0 1.311 1.311 0 0 1 .77.87c.157.586.257 1.185.3 1.79.08 1.71.15 3.41.22 5.11l.12 2.83c0 .29 0 .58.07.87v.06c.372.046.748.046 1.12 0h.61a2.777 2.777 0 0 1 1.55.39l.24.14v.28a1.39 1.39 0 0 1-1 1.19c-.594.209-1.202.376-1.82.5a2.092 2.092 0 0 0-.58.17v.57c0 .24 0 .49.09.76v.06h.39c.14.01.28.01.42 0a1.361 1.361 0 0 1 1.6 1c0 .07.08.16.15.29l.15.28.26.5-1 .24-.82.19-.88.19h-.07v.87a16.613 16.613 0 0 0 .14 3.6l2.06-2.83.32.13a1.909 1.909 0 0 1 1.14 1 1.662 1.662 0 0 1-.11 1.32c-.12.24-.23.49-.35.74-.24.52-.48 1.05-.78 1.56-.3.51-.74 1.13-1.12 1.66l-.47.66-.09.13c-.14.2-.28.41-.43.6a1.08 1.08 0 0 1-.96.54Zm-1.43-10.75a.897.897 0 0 1 .69.24 1.097 1.097 0 0 1 .23.84c-.05 1.83-.09 3.66-.13 5.49v2.09c.012.396.177.772.46 1.05a.66.66 0 0 0 .17.16.914.914 0 0 0 .15-.15c.14-.18.27-.37.4-.56l.09-.13.48-.67c.37-.52.75-1.05 1.08-1.6.273-.48.52-.974.74-1.48.11-.25.23-.5.35-.76a.792.792 0 0 0 .08-.62.782.782 0 0 0-.36-.38l-2.7 3.72-.26-.84a14.281 14.281 0 0 1-.4-4.78V18.14l.75-.16.86-.18.73-.17c0-.08-.06-.15-.09-.24-.1-.33-.29-.39-.68-.36a5.11 5.11 0 0 1-.88 0h-.78l-.11-.8c0-.29-.07-.55-.09-.8-.11-1.21.22-1.48 1.28-1.68a11.09 11.09 0 0 0 1.69-.47.764.764 0 0 0 .35-.19 4.088 4.088 0 0 0-1.35-.08c-.569.05-1.143.01-1.7-.12l-.28-.09-.06-.67c0-.3-.06-.6-.08-.91l-.06-2.82c-.07-1.7-.14-3.41-.23-5.1a7.896 7.896 0 0 0-.27-1.63.621.621 0 0 0-.13-.2l-.08.2a2.752 2.752 0 0 0-.17 1.62c.218.668.359 1.36.42 2.06.07 1.59.11 3.19.15 4.79V13.11l-.37.05-1.62.28a18.734 18.734 0 0 1-3.54.44h-1.06l-.08-.32a3.178 3.178 0 0 0-.09-.36 4.468 4.468 0 0 1-.15-.76l-.08-1.1c-.14-1.34-.29-2.72-.38-4.08a5.63 5.63 0 0 0-1.05-3.18l-.26-.39-.19-.27a3.768 3.768 0 0 0-3.61-1.64 1.143 1.143 0 0 0-.91.53 4.737 4.737 0 0 0-.44.75 4.207 4.207 0 0 0-.13 3 .273.273 0 0 0 0 .07.579.579 0 0 0 .17-.18.836.836 0 0 0 0-.2v-.33c0-.11.06-.34.08-.52.055-.483.159-.958.31-1.42a1.738 1.738 0 0 1 2.38-1.06 2.58 2.58 0 0 1 1.51 1.24A11.991 11.991 0 0 1 118 8.21c.09.95.16 1.89.22 2.83l.12 1.7a1.308 1.308 0 0 1-.21 1 1.253 1.253 0 0 1-1 .29h-1.46c-.276.017-.548.07-.81.16l-.14.08H118l.2.36a.673.673 0 0 1 .12.32v1.48c.08 1.21-.17 1.51-1.35 1.59h-1.22c-.29 0-.58.06-.87.1l-.4.06h-.15a.35.35 0 0 0 .21 0H118.3v2.49c0 .64 0 1.31.06 1.95.08 1 .2 2 .32 2.93l.14 1.18c.019.216.055.43.11.64a.697.697 0 0 0 .07.15 1.24 1.24 0 0 0 .18-.09.678.678 0 0 0 .37-.7v-.03a27.053 27.053 0 0 0-.23-5.08 6.137 6.137 0 0 1 .18-2.89l.08-.24.37-.09c.124-.037.251-.06.38-.07l5.23-.26h.17Zm-5.42-.13h-.78v-.39l-.06-.7c-.06-.54-.11-1.06-.12-1.59a1.123 1.123 0 0 1 .24-.83 1.17 1.17 0 0 1 .89-.28h5.63l.12.26c.334.756.438 1.595.3 2.41v.32l-.32.06-1.19.22a25.726 25.726 0 0 1-4.71.52ZM120.2 15v.19c0 .5.06 1 .11 1.53v.31a24.074 24.074 0 0 0 4.45-.55l.87-.16a3.3 3.3 0 0 0-.15-1.36h-5l-.28.04ZM93.31 23.24a6.71 6.71 0 0 1-3.09 3.26 3 3 0 0 1-1.87 0 1.48 1.48 0 0 1-.86-1.5c-.018-.81.039-1.62.17-2.42.22-1.44.45-2.87.79-4.28.47-1.92 1-3.8 1.59-5.71.25-.89.49-1.79.76-2.68L92 6c.08-.24.13-.49.2-.78a2.282 2.282 0 0 0-.48-.09 35.52 35.52 0 0 1-6.44 0 25.14 25.14 0 0 0-2.87.12c-1.3.07-2.61.13-3.91.17h-2.46c.09.35.15.59.23.82.5 1.43 1.18 2.78 1.79 4.16.93 2.1 1.68 4.27 2.49 6.42.45 1.16.88 2.34 1.29 3.51a6.92 6.92 0 0 1-.27 4.67C81 26.57 80 27.12 78 26.83a3 3 0 0 1-2.43-2 1 1 0 0 1-.12-.58.88.88 0 0 1 .43-.56.68.68 0 0 1 .58.23c.25.35.41.77.65 1.13a1.15 1.15 0 0 0 1.78.44 2.68 2.68 0 0 0 1.16-1.15c.17-.37.35-.73.53-1.1a2 2 0 0 0 .1-1.69c-.27-.71-.51-1.43-.78-2.13l-1.65-4.22c-1.45-3.72-2.93-7.41-4.7-11a.984.984 0 0 1 0-.18c.18-.45.59-.39 1-.39 1.37 0 2.73.05 4.1 0 .64 0 1.28-.09 1.91-.13 1-.07 2-.16 3-.19 2.79-.08 5.59-.13 8.38-.2.72 0 1.45-.12 2.17-.16a2.1 2.1 0 0 1 .61 0c.56.14.72.4.53 1-.28.8-.59 1.58-.9 2.37-.57 1.46-1.13 2.93-1.74 4.37A50.394 50.394 0 0 0 91 16.33c-.56 1.83-1.13 3.67-1.72 5.49a3.54 3.54 0 0 0 0 2.23c.29.92.89 1.06 1.65.47.59-.46 1.22-.89 1.84-1.32.12-.058.248-.098.38-.12l.14.16"/><path d="M78.94 27.34a5.787 5.787 0 0 1-1-.08A3.45 3.45 0 0 1 75.19 25a1.37 1.37 0 0 1-.13-.87 1.35 1.35 0 0 1 .67-.84H76a1.17 1.17 0 0 1 .85.42c.151.217.288.445.41.68.077.162.164.319.26.47.28.44.48.49.62.49.203-.014.4-.079.57-.19a2.17 2.17 0 0 0 1-1l.54-1.1a1.62 1.62 0 0 0 .08-1.34c-.12-.32-.23-.64-.35-.95-.12-.31-.28-.79-.43-1.18l-1-2.61-.63-1.61c-1.44-3.6-2.92-7.37-4.73-11a.67.67 0 0 1-.07-.27v-.27a1.1 1.1 0 0 1 1.12-.66h4.35c.4 0 .8 0 1.21-.07l.67-.06.86-.04c.74-.06 1.49-.11 2.23-.13 1.47-.05 2.93-.08 4.4-.11l4-.09c.43 0 .86 0 1.28-.09l.87-.07c.252-.013.505.01.75.07a1.17 1.17 0 0 1 .82.54 1.18 1.18 0 0 1 0 1c-.27.77-.56 1.53-.86 2.29l-.46 1.16c-.42 1.1-.86 2.23-1.33 3.32a21.928 21.928 0 0 0-1 3.44c-.16.7-.34 1.42-.55 2.13-.56 1.83-1.13 3.67-1.73 5.5a3.2 3.2 0 0 0 0 2c.07.23.2.52.4.52a1 1 0 0 0 .56-.27c.54-.41 1.1-.8 1.66-1.19l.2-.14a1.39 1.39 0 0 1 .4-.16l.38-.11.52.62-.14.26a7.05 7.05 0 0 1-3.3 3.45 3.4 3.4 0 0 1-2.17 0A1.86 1.86 0 0 1 87.05 25c-.017-.837.04-1.673.17-2.5.24-1.54.47-2.93.81-4.31.34-1.38.73-2.74 1.11-4.07.16-.55.32-1.11.47-1.65l.17-.6c.2-.7.39-1.4.6-2.09.21-.69.47-1.54.71-2.31l.49-1.61c.033-.095.06-.192.08-.29a34.79 34.79 0 0 1-6.41 0 12.71 12.71 0 0 0-1.84.06c-.33 0-.65.06-1 .07h-.15c-1.25.06-2.51.12-3.77.16h-1.9c.028.079.051.159.07.24.35 1 .81 2 1.25 3 .18.39.36.78.53 1.18.69 1.55 1.29 3.17 1.87 4.73L81 16.7c.45 1.17.88 2.35 1.29 3.53a7.35 7.35 0 0 1-.29 4.89 2.93 2.93 0 0 1-3.06 2.22ZM76 24.1a.66.66 0 0 0-.14.25c.023.086.053.17.09.25a2.61 2.61 0 0 0 2.1 1.8c1.72.26 2.6-.17 3.07-1.55a6.57 6.57 0 0 0 .26-4.33c-.41-1.18-.84-2.34-1.27-3.51-.22-.57-.43-1.13-.64-1.7-.57-1.56-1.17-3.16-1.85-4.69-.17-.39-.35-.77-.52-1.16a32.767 32.767 0 0 1-1.28-3c-.06-.17-.11-.34-.16-.54L75.47 5h3c1.25 0 2.5-.1 3.75-.15h.15l1-.07a12.89 12.89 0 0 1 2-.06 34.11 34.11 0 0 0 6.36 0h.09c.119.004.237.024.35.06h.17l.45.08-.17.72c0 .19-.09.37-.14.54l-.49 1.61c-.24.76-.48 1.53-.71 2.3-.23.77-.4 1.38-.59 2.07l-.17.6-.52 1.69c-.38 1.32-.77 2.68-1.1 4-.33 1.32-.56 2.72-.79 4.24-.13.783-.19 1.576-.18 2.37 0 .44.16 1 .55 1.08a2.61 2.61 0 0 0 1.57 0 5.27 5.27 0 0 0 2.27-2c-.38.26-.75.53-1.11.81a1.82 1.82 0 0 1-1.09.44c-.33 0-.93-.15-1.24-1.13a4.1 4.1 0 0 1 0-2.5c.59-1.84 1.12-3.7 1.72-5.5.21-.68.37-1.39.54-2.08.252-1.219.61-2.413 1.07-3.57.47-1.08.9-2.21 1.33-3.29L94 6.09c.3-.75.59-1.49.85-2.26a.53.53 0 0 0 0-.27s0-.06-.27-.12c-.12-.01-.24-.01-.36 0h-.11l-.85.06c-.45 0-.89.08-1.34.1l-4 .09c-1.46 0-2.92.06-4.38.11-.74 0-1.47.07-2.2.12l-.79.08h-.65c-.43 0-.86.08-1.29.08H75.85L74.26 4h-.24c1.77 3.67 3.28 7.45 4.66 11l.64 1.61 1 2.61c.15.4.29.8.44 1.21.15.41.22.62.34.93a2.55 2.55 0 0 1-.11 2l-.54 1.09a3 3 0 0 1-1.34 1.34 1.561 1.561 0 0 1-2.36-.58 5.71 5.71 0 0 1-.3-.54 3.329 3.329 0 0 0-.34-.56.228.228 0 0 0-.11-.01ZM101 1.5c.8-.14.86-.16 1.07.44.61 1.7 1.17 3.41 1.75 5.12l1 2.89 1.14 3.48c.07.22.14.44.2.66a.585.585 0 0 0 .256.395.582.582 0 0 0 .464.075c.47-.05.93-.12 1.39-.14.374-.015.749.005 1.12.06.32 0 .67.11.71.51.04.4-.51.76-.9.8-.55.06-1.09.11-1.64.19a2.92 2.92 0 0 0-.52.18c.059.815.351 1.596.84 2.25.12.17.53.22.79.21.26-.01.8-.19 1.2-.22a2.29 2.29 0 0 1 1 .12c.092.059.168.14.221.236a.659.659 0 0 1 .079.314c0 .12-.22.33-.38.37a6.947 6.947 0 0 1-1.2.17h-1.06c.032.61.203 1.206.5 1.74.27.74.56 1.46.78 2.21.35 1.2.64 2.42 1 3.63.062.223.109.45.14.68 0 .37 0 .71-.41.86a.751.751 0 0 1-1-.39c-.19-.32-.4-.64-.56-1a32.222 32.222 0 0 1-2.51-6.5 3.12 3.12 0 0 0-.16-.49c0-.11-.1-.21-.16-.34a2.938 2.938 0 0 0-.51-.05c-1 .05-2 .1-3 .17l-2.26.17a.679.679 0 0 0-.63.51C98.77 23 97.88 25.2 97 27.39a1.82 1.82 0 0 1-1 1.22.81.81 0 0 1-.22-1c.59-1.92 1.17-3.85 1.76-5.77.12-.4.21-.81.35-1.32-.57 0-1 0-1.43-.08a4.244 4.244 0 0 1-1.17-.27.53.53 0 0 1 0-1 2.1 2.1 0 0 1 .83-.19h1.66a.74.74 0 0 0 .88-.64c.11-.48.25-.95.41-1.52-1-.14-2-.28-3-.4a8.3 8.3 0 0 1-.87-.06.47.47 0 0 1-.31-.33.65.65 0 0 1 .24-.49c.283-.082.575-.13.87-.14 1.06-.14 2.13-.28 3.2-.37.44 0 .59-.3.69-.66.25-1 .53-1.91.75-2.87.34-1.54.65-3.08.93-4.62a3.812 3.812 0 0 0-.06-1.21c-.18-1.08-.4-2.17-.58-3.25a5.652 5.652 0 0 1 0-.92m-.76 17.5c1.82.45 3.49-.06 5.16 0 .15 0 .29-.14.46-.22-.18-.6-.33-1.16-.5-1.71a.663.663 0 0 0-.555-.547.659.659 0 0 0-.275.017c-1.12.12-2.25.12-3.38.21a.672.672 0 0 0-.51.33c-.17.58-.26 1.18-.4 1.88m2.88-9.37h-.27c-.47 1.74-.94 3.49-1.46 5.39a16.86 16.86 0 0 0 3.24-.38c-.67-1.69-.85-3.43-1.51-5"/><path d="M110.13 29.24a1.222 1.222 0 0 1-1-.65v-.09a8.054 8.054 0 0 1-.54-1c-.18-.41-.37-.82-.56-1.23A24.102 24.102 0 0 1 106 21c0-.12-.08-.24-.12-.36l-.07-.16h-.18c-1 0-2 .11-3 .18-.39 0-.78 0-1.16.09l-1.1.08c-.1 0-.17 0-.26.23l-.83 2.08c-.6 1.493-1.19 2.983-1.77 4.47A2.25 2.25 0 0 1 96.16 29l-.23.09-.2-.16a1.271 1.271 0 0 1-.36-1.43l1.75-5.76c.08-.25.15-.51.22-.78-.34 0-.63 0-.93-.07a4.753 4.753 0 0 1-1.29-.3 1 1 0 0 1-.58-.85 1 1 0 0 1 .54-.91 2.44 2.44 0 0 1 1-.23c.566-.03 1.134-.03 1.7 0 .3 0 .37-.07.42-.31.05-.24.17-.66.27-1l-.31-.05-2.16-.32a5.87 5.87 0 0 1-.91-.06.88.88 0 0 1-.66-.77 1 1 0 0 1 .5-.88A4 4 0 0 1 96 15h.22c1-.12 2-.25 3-.34.16 0 .22 0 .3-.33l.21-.78c.19-.69.38-1.38.54-2.08.36-1.63.67-3.14.93-4.6a3.056 3.056 0 0 0-.06-1c-.09-.56-.19-1.09-.29-1.63-.1-.54-.2-1.1-.29-1.65a3.562 3.562 0 0 1 0-.73v-.73l.36-.06c.221-.044.445-.074.67-.09.6 0 .77.45.89.81.47 1.3.9 2.6 1.34 3.9l.41 1.23c.33 1 .65 1.92 1 2.89.38 1.16.76 2.32 1.13 3.48.09.28.16.49.22.7.06.21 0 .14.17.14l.52-.06c.32 0 .65-.07 1-.08a6.718 6.718 0 0 1 1.19 0 1.06 1.06 0 0 1 1.09.91.87.87 0 0 1-.23.66c-.266.33-.643.55-1.06.62H109c-.48.05-1 .1-1.45.17h-.12a4.3 4.3 0 0 0 .75 1.73h.34c.203-.014.404-.047.6-.1.214-.055.431-.095.65-.12a2.94 2.94 0 0 1 1.2.15 1.088 1.088 0 0 1 .58.94.994.994 0 0 1-.72.81c-.416.106-.841.17-1.27.19h-.62c.058.246.146.484.26.71.06.15.13.29.18.44l.22.58c.2.54.4 1.1.57 1.66.26.91.5 1.82.73 2.73l.23.91c.069.239.119.483.15.73a1.108 1.108 0 0 1-.69 1.33 1.201 1.201 0 0 1-.46.2Zm-4.56-9.69a3.69 3.69 0 0 1 .41 0l.38.05.17.33c0 .09.09.18.12.26.078.185.142.375.19.57a22.919 22.919 0 0 0 1.91 5.15l.57 1.25c.136.291.293.572.47.84l.06.09c.15.24.25.24.28.24.046.01.094.01.14 0 .11 0 .17-.06.13-.4a4.23 4.23 0 0 0-.13-.62l-.27-.91c-.23-.9-.46-1.81-.72-2.7-.16-.54-.36-1.08-.55-1.6l-.22-.59c0-.13-.11-.26-.16-.38a3.176 3.176 0 0 1-.35-1.53v-.42h1.44a6.3 6.3 0 0 0 1.13-.17.418.418 0 0 0 0-.1 2.81 2.81 0 0 0-.77-.05 2.994 2.994 0 0 0-.51.09 3.776 3.776 0 0 1-.7.12h-.1a1.276 1.276 0 0 1-1.07-.41 4.616 4.616 0 0 1-.92-2.47v-.32l.3-.1.16-.07a1.58 1.58 0 0 1 .45-.14c.49-.07 1-.12 1.48-.17h.17a.859.859 0 0 0 .51-.37s0-.05-.32-.08a6.153 6.153 0 0 0-1.05-.05l-.91.09-.45.05a1 1 0 0 1-1.2-.79 5.565 5.565 0 0 0-.17-.58c-.4-1.23-.77-2.39-1.16-3.54-.31-1-.63-1.93-1-2.89L103 6c-.43-1.3-.87-2.59-1.33-3.88a.867.867 0 0 0-.12-.27.344.344 0 0 1-.12.05 1.761 1.761 0 0 0 0 .47c.08.55.18 1.1.28 1.65.1.55.2 1.07.29 1.62.081.45.081.91 0 1.36-.26 1.47-.57 3-.94 4.63-.15.71-.35 1.42-.54 2.12l-.21.77a1.148 1.148 0 0 1-1.07 1c-1 .09-2 .22-3 .34h-.21c-.262.026-.52.083-.77.17.258.038.52.055.78.05l2.22.3 1.3.17-.28 1c-.09.35-.18.66-.25 1a1.16 1.16 0 0 1-1.23 1H96.08a1.66 1.66 0 0 0-.65.14.11.11 0 0 0-.08.1.1.1 0 0 0 .07.07c.32.13.656.212 1 .24.285.036.573.056.86.06h1.07l-.26 1c-.08.31-.15.58-.24.86l-1.75 5.77a.844.844 0 0 0 0 .23c.21-.22.364-.488.45-.78.58-1.49 1.18-3 1.78-4.48l.83-2.07a1.11 1.11 0 0 1 1-.79l1.08-.08 1.18-.09 3-.17.15-.01Zm-3.72.05a7.51 7.51 0 0 1-1.78-.2l-.41-.1.19-1c.077-.455.177-.905.3-1.35a1.092 1.092 0 0 1 .9-.65l1.43-.08c.63 0 1.29-.06 1.93-.12a1.058 1.058 0 0 1 1.3.83c.12.4.23.79.35 1.2l.25.86-.32.17-.12.07a.91.91 0 0 1-.52.2h-.51c-.47 0-.93 0-1.43.07-.5.07-1.03.1-1.56.1Zm-1.17-1c.884.1 1.776.1 2.66 0a15.506 15.506 0 0 1 1.93-.07v-.17c-.12-.41-.23-.8-.35-1.2-.12-.4-.16-.23-.37-.21-.66.07-1.33.1-2 .13-.46 0-.93 0-1.4.08a.365.365 0 0 0-.15.08c-.09.33-.16.74-.25 1.2l-.07.16Zm0-3.13 1.71-6.32h.9l.11.28c.334.84.599 1.706.79 2.59.188.828.428 1.643.72 2.44l.18.45-.46.13a9.346 9.346 0 0 1-2.29.32c-.33 0-.67 0-1 .07l-.66.04Zm2.32-4.83-1.06 3.87h.45a9.892 9.892 0 0 0 1.63-.16 21.31 21.31 0 0 1-.59-2.09c-.18-.58-.31-1.11-.43-1.62ZM147.16 17.05a3.086 3.086 0 0 1 2.29-1.31c.83-.15 1.66-.27 2.5-.36a.742.742 0 0 0 .72-.63c.35-1.56.7-3.11 1.06-4.67.23-1 .46-2 .75-3a2.53 2.53 0 0 0-.18-2c-.39-.72-.75-1.44-1.14-2.16-.27-.52-.25-.75.17-1a.814.814 0 0 1 .916-.124c.098.05.184.12.254.204.131.158.232.337.3.53.37 1 .72 2.08 1.08 3.13.44 1.29.88 2.58 1.33 3.87.35 1 .71 2.1 1.07 3.14.13.38.25.78.4 1.15.36.89.38.9 1.36.86.72 0 1.45-.08 2.24-.13.138.161.265.332.38.51.46.8.15 1.38-.76 1.4h-1.05c-.35 0-.72.14-1.16.23.2.78.38 1.44.56 2.11.08.32.31.39.59.39h1.58c.24 0 .52.05.49.34a.74.74 0 0 1-.45.41c-.443.14-.894.253-1.35.34a.5.5 0 0 0-.4.72c.28.76.6 1.51.9 2.26.57 1.46 1.15 2.92 1.7 4.39.082.306.119.623.11.94a.687.687 0 0 1-.54.79.719.719 0 0 1-.88-.38 9.337 9.337 0 0 1-.65-1.53c-.25-.74-.41-1.51-.66-2.25-.5-1.52-1-3-1.57-4.57h-3.14c-1.01 0-2.32.13-3.48.18a.63.63 0 0 0-.65.57c-.33 1.6-.68 3.18-1 4.77a17.55 17.55 0 0 1-.55 2.19c-.173.39-.437.733-.77 1a.59.59 0 0 1-1-.42 2.294 2.294 0 0 1 .12-.85c.62-2.06 1.26-4.11 1.88-6.17.09-.3.16-.6.24-.93-1-.43-2 .07-3-.36.19-.63.51-1 1.13-.93.62.07 1.11 0 1.67 0a.72.72 0 0 0 .83-.59c.15-.59.31-1.17.48-1.8a2.327 2.327 0 0 0-.57-.13H148a4.492 4.492 0 0 1-.85-.2m11.34 2.49c-.27-.84-.5-1.49-.67-2.15a.677.677 0 0 0-.286-.462.67.67 0 0 0-.534-.098c-1 .07-1.91.11-2.86.21a1 1 0 0 0-.64.36c-.29.395-.541.817-.75 1.26-.141.325-.262.66-.36 1l6.1-.13m-1.29-4.74a7.01 7.01 0 0 0-.5-2.29c-.47-1.66-.51-1.72-1-2.12l-1.42 4.73c1.06-.19 2 .05 2.9-.32"/><path d="M149.11 30a1.052 1.052 0 0 1-1-.95 2.498 2.498 0 0 1 .13-1c.38-1.27.76-2.53 1.15-3.79l.74-2.39.12-.5a3.993 3.993 0 0 0-1 0h-.42a2.832 2.832 0 0 1-1.24-.23l-.35-.16.11-.36a1.51 1.51 0 0 1 1.51-1.25h1.73c.26 0 .33-.05.38-.26.1-.4.21-.79.32-1.2v-.18H148a2.267 2.267 0 0 1-.63-.12l-.33-.1-.61-.15.36-.52a3.485 3.485 0 0 1 2.57-1.49c.74-.14 1.55-.25 2.53-.37.25 0 .3-.1.34-.29l.19-.82c.29-1.28.58-2.57.88-3.85v-.11c.22-.94.45-1.92.74-2.87a2.104 2.104 0 0 0-.16-1.69c-.18-.33-.35-.66-.52-1-.17-.34-.4-.79-.61-1.17-.21-.38-.45-1.1.3-1.6a1.27 1.27 0 0 1 1.75.19c.165.196.294.42.38.66.36 1 .71 2 1.06 3.05l2.53 7.42c.09.27.18.54.29.81.24.6.24.6.53.6h.4l1.55-.08.92-.06.24.31c.108.134.208.274.3.42a1.395 1.395 0 0 1 .14 1.44 1.38 1.38 0 0 1-1.26.63h-.45a5.179 5.179 0 0 0-.56 0 5.57 5.57 0 0 0-.67.12v.17l.4 1.5s.05.06.17.06h1.57c.281-.01.556.087.77.27a.687.687 0 0 1 .143.267.689.689 0 0 1 .017.303 1.106 1.106 0 0 1-.74.77 8.197 8.197 0 0 1-1 .26l-.39.08a.374.374 0 0 0-.11.05.28.28 0 0 0 0 .1c.18.49.37 1 .57 1.46l.66 1.68c.46 1.16.92 2.33 1.36 3.5.091.28.134.575.13.87v.21a1.121 1.121 0 0 1-.86 1.23 1.15 1.15 0 0 1-1.39-.61 11.915 11.915 0 0 1-.68-1.59c-.12-.38-.23-.76-.33-1.16-.1-.4-.2-.74-.32-1.1-.36-1.06-.73-2.13-1.1-3.2l-.37-1.07H156c-.71 0-1.43.07-2.15.11l-1.32.07c-.15 0-.2 0-.24.23-.34 1.59-.68 3.18-1 4.77l-.09.4a13.897 13.897 0 0 1-.48 1.84c-.194.47-.5.885-.89 1.21a1 1 0 0 1-.72.23Zm.55-9.58c.434-.016.867.059 1.27.22l.34.15-.16.66c-.05.22-.11.44-.17.64l-.73 2.4c-.39 1.26-.77 2.52-1.15 3.78a1.662 1.662 0 0 0-.1.67c0 .18.15.22.25.13.276-.224.492-.512.63-.84.193-.565.347-1.143.46-1.73l.09-.4c.35-1.59.7-3.18 1-4.76a1.05 1.05 0 0 1 1.06-.92l1.31-.08c.73 0 1.45-.08 2.18-.1H159.41l.57 1.65c.37 1.08.74 2.15 1.1 3.22.12.38.23.76.33 1.15.1.39.2.74.32 1.11.172.497.379.982.62 1.45.1.2.23.2.27.2h.11c.16 0 .24-.11.23-.34v-.22a2.063 2.063 0 0 0-.08-.6c-.44-1.17-.89-2.33-1.35-3.49l-.66-1.67c-.2-.5-.4-1-.59-1.49a.992.992 0 0 1 0-.81.99.99 0 0 1 .69-.49l.4-.09.58-.13h-1.15a.929.929 0 0 1-1-.72c-.12-.49-.25-1-.4-1.49l-.28-1.06.85-.18c.27-.07.543-.124.82-.16.226-.015.454-.015.68 0h.39a.646.646 0 0 0 .53-.18.71.71 0 0 0-.13-.56 2.892 2.892 0 0 0-.2-.28h-.45l-1.58.09h-.43c-.88 0-1-.4-1.35-1.14-.11-.28-.21-.57-.3-.86l-2.53-7.42c-.35-1-.7-2-1.06-3a1.302 1.302 0 0 0-.22-.4.325.325 0 0 0-.27-.15.61.61 0 0 0-.32.12c-.13.09-.15.14-.15.14a.98.98 0 0 0 .13.32l.62 1.18c.17.33.34.66.52 1a2.998 2.998 0 0 1 .22 2.35c-.28.92-.51 1.89-.73 2.82v.11c-.3 1.28-.59 2.56-.87 3.84l-.19.83a1.159 1.159 0 0 1-1.1 1c-1 .12-1.75.23-2.47.36a2.998 2.998 0 0 0-1.58.64h3.37c.156.005.311.032.46.08l.21.06.44.11-.28 1c-.11.4-.22.79-.32 1.19a1.136 1.136 0 0 1-1.2.92h-1.73a.591.591 0 0 0-.52.22c.283.025.567.025.85 0l.43-.05Zm2.12-.29.21-.59c0-.13.07-.25.11-.36.07-.242.157-.48.26-.71.225-.465.489-.91.79-1.33a1.52 1.52 0 0 1 .95-.53c.59-.06 1.19-.1 1.78-.14l1.09-.07a1.076 1.076 0 0 1 1.128.485c.078.123.129.261.152.405.12.44.26.88.42 1.37l.42 1.32-7.31.15Zm5.35-2.86H157l-1.1.08c-.59 0-1.17.07-1.75.13a.668.668 0 0 0-.34.19 8.189 8.189 0 0 0-.7 1.19 2.33 2.33 0 0 0-.14.37l4.89-.1-.06-.19c-.17-.52-.31-1-.43-1.43-.02-.24-.08-.25-.24-.25v.01Zm-3.44-1.58 1.81-6.06.51.43c.58.49.65.69 1.12 2.34.05.16.11.33.16.5.237.616.359 1.27.36 1.93v.28l-.26.11a5.063 5.063 0 0 1-1.81.26 7.883 7.883 0 0 0-1.18.08l-.71.13Zm2.21-4.34-1 3.27h.63c.41.008.819-.032 1.22-.12a5.406 5.406 0 0 0-.32-1.32c0-.18-.11-.35-.16-.53-.17-.65-.27-1.06-.37-1.31v.01ZM33.24 20.23c.058.338.138.672.24 1 .51 1.55 1 3.08 1.55 4.63.21.63.41 1.27.59 1.91.18.64.14.83-.62 1a2.67 2.67 0 0 1-.36 0c-.11-.26-.25-.54-.36-.83-.82-2.17-1.64-4.35-2.47-6.52a.81.81 0 0 1-.08-.25c-.05-1-.62-1.27-1.53-1.32a26.88 26.88 0 0 0-5.44.17c-.09.38-.2.74-.26 1.11a14 14 0 0 1-1.5 4.51c-.49.89-.95 1.8-1.41 2.71a.801.801 0 0 1-1.18.43 2.34 2.34 0 0 1 .11-1.33c.64-2.09 1.29-4.17 1.92-6.26.09-.29.15-.59.26-1l-1.91.25a2.59 2.59 0 0 1-.78.05.7.7 0 0 1-.4-.39.5.5 0 0 1 .16-.44c.31-.18.649-.308 1-.38.523-.03 1.047-.03 1.57 0a.8.8 0 0 0 .89-.66c.14-.55.3-1.1.48-1.76-1.095.099-2.2.02-3.27-.23-.18-.55.05-.81.53-.9.83-.16 1.65-.32 2.48-.45.83-.13.92-.16 1.11-1 .58-2.52 1.13-5.05 1.72-7.57.12-.52.32-1 .48-1.52-.26-.81-.5-1.64-.8-2.45a1.49 1.49 0 0 1 .34-1.62c.39 0 .52.3.65.58.45 1 1 2 1.32 3 .65 1.86 1.22 3.76 1.82 5.64.37 1.16.72 2.33 1.1 3.49.29.86.32.86 1.25.84a9.215 9.215 0 0 1 1 0 .781.781 0 0 1 .74.87.66.66 0 0 1-.36.41 2.63 2.63 0 0 1-.69 0L32 16.1c.152.841.397 1.663.73 2.45l1.32-.08c.57 0 1 .26 1 .71a1 1 0 0 1-1 .89h-.68l-.15.16M27.57 7.82a9.67 9.67 0 0 0-.82 3.48 17.431 17.431 0 0 0-.75 3.52c1.258.096 2.522.022 3.76-.22-.73-2.27-1.05-4.58-2.23-6.78m3.51 11c-.22-.72-.41-1.28-.59-1.86a.79.79 0 0 0-.9-.62c-1.16.09-2.32.13-3.48.23a.78.78 0 0 0-.58.29 3.69 3.69 0 0 0-.43 2.14c2.003.095 4.01.018 6-.23"/><path d="M20.82 29.33a1.56 1.56 0 0 1-.63-.15L20 29.1l-.06-.19a2.65 2.65 0 0 1 .12-1.59l.32-1.06L22 21.07c0-.13.07-.25.1-.39l-1.28.16h-.16a2.11 2.11 0 0 1-.75 0 1.08 1.08 0 0 1-.73-.66.88.88 0 0 1 .37-1 3.65 3.65 0 0 1 1.19-.42 6.834 6.834 0 0 1 1-.05h.66c.32 0 .39-.1.45-.32.1-.39.2-.77.32-1.19h-.77a6.58 6.58 0 0 1-2.1-.2l-.21-.07-.09-.23a1.12 1.12 0 0 1 0-1 1.1 1.1 0 0 1 .82-.51l.57-.11c.64-.12 1.28-.24 1.93-.34.65-.1.62-.1.74-.64.28-1.2.55-2.39.82-3.59.27-1.2.59-2.65.9-4 .09-.38.22-.75.34-1.1 0-.11.08-.22.11-.32l-.19-.62c-.18-.56-.35-1.12-.56-1.67A1.94 1.94 0 0 1 26 .79l.13-.16h.2a1.17 1.17 0 0 1 1.05.85l.38.84c.34.72.68 1.47 1 2.23.48 1.36.91 2.75 1.33 4.1l.9 2.84c.23.74.46 1.47.7 2.2.049.184.12.362.21.53.203.01.407.01.61 0h.09a8.3 8.3 0 0 1 1 0 1.29 1.29 0 0 1 .9.47 1.17 1.17 0 0 1 .24.9 1 1 0 0 1-.64.76c-.195.053-.399.07-.6.05h-.15c-.28 0-.51 0-.75.07.097.417.227.825.39 1.22 0 .13.09.25.13.38l1.1-.06a1.24 1.24 0 0 1 1.36 1.12 1.18 1.18 0 0 1-.34.89 1.48 1.48 0 0 1-1.08.47h-.32c.034.193.08.383.14.57.27.81.54 1.62.82 2.42.28.8.5 1.47.74 2.21s.41 1.28.59 1.94a1.3 1.3 0 0 1 0 1.06c-.18.29-.52.38-1 .47h-.72l-.23-.54c-.09-.19-.18-.39-.26-.59l-1.95-5.17-.52-1.36a1.19 1.19 0 0 1-.11-.38c0-.57-.2-.85-1.11-.9a27.876 27.876 0 0 0-5.06.13v.07c-.07.233-.128.47-.17.71a14.251 14.251 0 0 1-1.6 4.65c-.43.79-.84 1.6-1.25 2.4l-.15.3a1.22 1.22 0 0 1-1.18.85Zm-.08-.89c.1 0 .19.14.41-.29l.15-.29c.41-.82.82-1.63 1.27-2.43a13.643 13.643 0 0 0 1.5-4.37c.046-.27.106-.537.18-.8l.16-.63h.29c.28-.05.57-.08.87-.12h-.88l-.06-.35a4.07 4.07 0 0 1 .51-2.45 1.2 1.2 0 0 1 .94-.54C26.71 16 27.35 16 28 16l1.57-.1h.14a1.2 1.2 0 0 1 1.22.93c.12.4.25.8.39 1.24l.36 1.12-.53.06-1.74.17h.83a1.78 1.78 0 0 1 2 1.74l.06.11.51 1.36 1.95 5.17c.07.18.15.35.23.53l.36-.09a3.295 3.295 0 0 0-.08-.35c-.18-.64-.37-1.27-.58-1.89-.21-.62-.5-1.47-.74-2.2-.24-.73-.55-1.62-.82-2.43a6.155 6.155 0 0 1-.19-.77l-.11-.48.37-.43.4-.05h.54a.608.608 0 0 0 .44-.19.35.35 0 0 0 .11-.24c0-.22-.27-.29-.49-.29l-1.71.1-.11-.33-.31-.69a7.741 7.741 0 0 1-.51-1.87v-.44l.82-.09.81-.08h.58a.271.271 0 0 0 .07-.08.3.3 0 0 0-.07-.21.382.382 0 0 0-.28-.14h-1.35c-.91 0-1.07-.37-1.33-1.15-.26-.78-.47-1.47-.7-2.21l-.89-2.84c-.42-1.34-.86-2.72-1.33-4.07-.25-.72-.59-1.45-.91-2.14l-.39-.86a1.48 1.48 0 0 0-.11-.22 1 1 0 0 0-.07.93c.21.57.39 1.15.57 1.72l.28.88v.14c-.05.16-.11.31-.16.47-.126.327-.233.66-.32 1l-.9 4c-.27 1.2-.53 2.4-.81 3.6-.23 1-.5 1.16-1.47 1.3-.63.1-1.27.22-1.9.34l-.56.11a.47.47 0 0 0-.24.09 7.64 7.64 0 0 0 2.18.15h1.27L24 17.5c-.12.41-.22.78-.32 1.15a1.21 1.21 0 0 1-1.29 1h-.67a6.634 6.634 0 0 0-.86 0A2.46 2.46 0 0 0 20 20l.07.06h.08c.113.01.227.01.34 0h.18L22 19.8l1.22-.16-.25 1c-.06.25-.11.46-.17.66l-1.59 5.19-.33 1.07a2.778 2.778 0 0 0-.14.88Zm4.73-9.84c1.67.053 3.34-.014 5-.2v-.11l-.4-1.24c-.08-.26-.18-.31-.38-.31h-.07l-1.59.1c-.63 0-1.26.07-1.88.12a.6.6 0 0 0-.25.09 3.67 3.67 0 0 0-.43 1.55Zm1.74-3.31h-1.6v-.4a7.779 7.779 0 0 1 .39-2.42c.13-.407.233-.82.31-1.24 0-.27.08-.54.11-.81a7 7 0 0 1 .75-2.81l.39-.69.38.7a20.001 20.001 0 0 1 1.65 4.66c.19.72.39 1.46.62 2.18l.15.47-.47.1c-.882.181-1.78.268-2.68.26Zm-.72-.89c.919.042 1.84-.005 2.75-.14-.18-.59-.33-1.18-.49-1.76a23.5 23.5 0 0 0-1.16-3.62 9.087 9.087 0 0 0-.29 1.64c0 .29-.07.57-.11.85-.08.46-.21.91-.33 1.35a7.786 7.786 0 0 0-.37 1.68ZM61 2.13a1.45 1.45 0 0 1 1 .69c.443.633.83 1.302 1.16 2 .84 2 1.6 3.93 2.43 5.88.4.94.88 1.84 1.3 2.76a.62.62 0 0 0 .76.41 8.7 8.7 0 0 1 1.13-.08c.317.008.632.052.94.13.35.08.6.27.55.67a.69.69 0 0 1-.71.63c-.41 0-.82 0-1.22.09-.206.051-.407.121-.6.21.25.8.45 1.58.73 2.33.06.15.43.24.66.25.41 0 .81-.11 1.21-.09.68.06 1 .36 1 .9a1 1 0 0 1-1 1l-.9.08c.008.188.031.376.07.56.75 2.15 1.52 4.28 2.25 6.43a1.62 1.62 0 0 1 .06 1.51 3.637 3.637 0 0 1-.41-.49 26.622 26.622 0 0 1-2.25-5.66c-.2-.6-.4-1.21-.65-1.8-.25-.59-.44-.73-1-.58a6.85 6.85 0 0 1-2.67-.12 6.198 6.198 0 0 0-1-.07c-1.13 0-2.26.11-3.39.16-.73 0-.81 0-.93.76-.37 2.31-1.34 4.31-1.92 6.47a2.79 2.79 0 0 1-.51.9.49.49 0 0 1-.44.16.65.65 0 0 1-.34-.44c.007-.257.058-.51.15-.75l1.8-6.37a1.998 1.998 0 0 0 0-.44 7.94 7.94 0 0 0-2.23 0c-.18 0-.38.13-.51.07a.84.84 0 0 1-.42-.47c0-.12.13-.37.27-.44.213-.084.44-.128.67-.13a41.537 41.537 0 0 1 1.83-.18 1.11 1.11 0 0 0 1.13-1c.08-.39.2-.77.32-1.21H57.5a4.44 4.44 0 0 1-1.11-.13 3.998 3.998 0 0 1-.85-.67c.45-.15.72-.25 1-.31 1-.24 1.93-.46 2.88-.73a1.1 1.1 0 0 0 .54-.46c.122-.235.206-.488.25-.75.52-2.05 1-4.11 1.55-6.17.162-.617.276-1.245.34-1.88a2.48 2.48 0 0 0-.27-1c-.28-.73-.59-1.45-.86-2.18a1.556 1.556 0 0 1 0-.47m6.23 16.18c-.28-.78-.52-1.43-.73-2.08a.76.76 0 0 0-.93-.59c-1.43.23-2.87.45-4.3.69a.73.73 0 0 0-.46.34c-.24.61-.44 1.24-.7 2a56.408 56.408 0 0 0 7.12-.38M65.54 14c-.74-2.36-1.42-4.55-2.11-6.73a2.258 2.258 0 0 0-.13-.33 1.24 1.24 0 0 0-.38.64c-.1.63-.12 1.27-.26 1.9-.28 1.3-.62 2.59-.93 3.89-.1.41-.18.82-.3 1.39l4.11-.76Z"/><path d="m71.89 29.29-.41-.47-.16-.17a2.274 2.274 0 0 1-.3-.38 27.362 27.362 0 0 1-2.25-5.59v-.15c-.19-.58-.39-1.19-.64-1.77-.15-.36-.21-.36-.25-.36a.791.791 0 0 0-.23 0 5.72 5.72 0 0 1-2.22 0l-.62-.1c-.32 0-.56-.06-.8-.06h-.09c-.67 0-1.33.06-2 .09l-1.39.07a3.234 3.234 0 0 0-.47 0s0 .09-.06.35a24.545 24.545 0 0 1-1.15 4c-.28.82-.58 1.66-.8 2.5-.13.364-.323.703-.57 1a1 1 0 0 1-.73.35h-.1l-.15-.05a1.11 1.11 0 0 1-.6-.8A2.162 2.162 0 0 1 56 27l1.82-6.45a8.548 8.548 0 0 0-1.59 0h-.16a.535.535 0 0 0-.12 0 .88.88 0 0 1-.62 0 1.32 1.32 0 0 1-.64-.74.94.94 0 0 1 .48-.95 1.8 1.8 0 0 1 .72-.17H56l1.83-.17a.7.7 0 0 0 .74-.64c.05-.22.11-.44.17-.68h-1.36a3.74 3.74 0 0 1-1.13-.15 1.88 1.88 0 0 1-.66-.46l-.32-.28-.62-.51 1.17-.38.61-.19 1-.24c.62-.15 1.25-.3 1.87-.48a.67.67 0 0 0 .29-.28 1.39 1.39 0 0 0 .15-.45l.26-1.15c.43-1.7.87-3.4 1.28-5.1a12.15 12.15 0 0 0 .33-1.82 1.81 1.81 0 0 0-.16-.59l-.08-.19c-.13-.35-.27-.69-.41-1-.14-.31-.31-.76-.45-1.14a1 1 0 0 1 0-.5.767.767 0 0 1 0-.15v-.48l.48.08a1.88 1.88 0 0 1 1.31.88c.453.665.854 1.364 1.2 2.09.46 1.07.9 2.15 1.33 3.23.36.89.72 1.78 1.1 2.66.21.52.46 1 .71 1.53.25.53.4.82.58 1.23.1.21.17.17.31.15a8.169 8.169 0 0 1 1.11-.09c.375.006.747.057 1.11.15a1 1 0 0 1 .89 1.14 1.14 1.14 0 0 1-1.12 1h-.41l-.79.07h-.11l.06.23c.16.56.32 1.08.51 1.59.098.03.198.05.3.06.17.016.34.016.51 0 .24-.02.48-.02.72 0 1.18.09 1.37.87 1.37 1.32a1.41 1.41 0 0 1-1.37 1.46l-.47.05.87 2.47c.46 1.32.92 2.63 1.37 4l.06.15a1.84 1.84 0 0 1 0 1.71l-.25.47Zm-14.62-9.6c.363-.005.725.028 1.08.1l.35.07v.53c.02.126.02.254 0 .38l-1.85 6.52a1.482 1.482 0 0 0-.09.46 2 2 0 0 0 .41-.7c.24-.87.54-1.73.83-2.56.472-1.244.84-2.525 1.1-3.83.17-1 .49-1.08 1.34-1.12l1.39-.07 2-.09H64c.278.005.555.025.83.06l.73.11a4.65 4.65 0 0 0 1.85 0 1.15 1.15 0 0 1 1.52.83c.252.601.472 1.215.66 1.84v.16c.42 1.435.935 2.842 1.54 4.21-.39-1.14-.79-2.27-1.19-3.41l-.87-2.47a1.9 1.9 0 0 1-.07-.46v-.65l.74-.06.59-.06c.28 0 .6-.15.6-.57 0-.25 0-.43-.57-.47h-.09a3.716 3.716 0 0 0-.46 0 5.073 5.073 0 0 1-.56.05h-.09c-.08 0-.86 0-1-.53s-.38-1.14-.56-1.74l-.3-1 .39-.14.23-.09c.148-.074.307-.124.47-.15.28 0 .56-.02.84-.06h.39c.27 0 .3-.12.31-.25.01-.13 0-.13-.2-.18a4.148 4.148 0 0 0-.85-.12 4 4 0 0 0-1.07.08 1.07 1.07 0 0 1-1.22-.66c-.18-.41-.38-.8-.57-1.2-.19-.4-.51-1-.73-1.57l-.57-1.37 1.49 4.75-5.24 1 .24-1.17c.07-.32.13-.59.2-.87.1-.44.21-.89.32-1.34.21-.84.42-1.69.61-2.55.07-.35.11-.72.15-1.1l.09-.76A1.66 1.66 0 0 1 63 6.6l.31-.33c-.18-.42-.35-.84-.53-1.25a12.516 12.516 0 0 0-1.09-1.91L61.58 3c.07.2.15.39.23.59l.42 1.06.07.17c.152.311.227.654.22 1a12.14 12.14 0 0 1-.35 2c-.41 1.7-.85 3.4-1.28 5.1l-.3 1.21a2.56 2.56 0 0 1-.26.73 1.63 1.63 0 0 1-.81.66c-.63.17-1.26.33-1.9.48l-1 .24-.23.07a.56.56 0 0 0 .13.07c.282.081.576.115.87.1h2.48l-.25 1a5.407 5.407 0 0 0-.19.77 1.56 1.56 0 0 1-1.54 1.34l-1.81.17h-.13a.92.92 0 0 0-.38.07.36.36 0 0 0 .09.08H56.1c.43-.19.8-.22 1.17-.22Zm6-11.5v.13c-.033.403-.09.804-.17 1.2-.19.86-.4 1.72-.61 2.57-.11.45-.22.89-.32 1.34-.06.23-.11.46-.16.73l3-.55-1.74-5.42Zm-3.81 10.92.41-1.2c.17-.52.33-1 .51-1.43a1.112 1.112 0 0 1 .79-.6c1.42-.25 2.86-.47 4.29-.69h.27a1.16 1.16 0 0 1 1.15.9c.15.45.31.9.49 1.39l.42 1.19-.54.08c-2.38.274-4.774.401-7.17.38l-.62-.02Zm6.27-3.06h-.12c-1.44.22-2.87.44-4.29.69a.32.32 0 0 0-.14.08c-.16.42-.31.86-.48 1.36a55.268 55.268 0 0 0 5.91-.31l-.06-.16c-.18-.5-.34-1-.49-1.42-.06-.22-.21-.24-.33-.24ZM4.24 2.26h3.8a18.16 18.16 0 0 0 2.33-.2A30.56 30.56 0 0 1 16 1.74c.216.019.43.056.64.11-.19.39-.32.72-.5 1-.42.73-.85 1.46-1.3 2.16-.59.9-1.18 1.8-1.84 2.65-.66.85-1.31.83-1.95-.12a.807.807 0 0 1-.1-.25c.68-1.22 1.91-2.14 2.57-3.68-1.14.09-2.12.13-3.09.24-1.29.15-2.58.35-3.87.54-.62.09-.72.21-.78.82a5.18 5.18 0 0 0 0 .79c.06 1.82.1 3.65.2 5.48.1 1.83.29 3.76.45 5.64.211 2.434.278 4.878.2 7.32a22.86 22.86 0 0 1-.35 2.85c-.27 1.61-1 2.18-2.65 2.09a3.92 3.92 0 0 1-2.85-1.5c-.52-.62-.45-1.3.25-2 .17.32.31.61.47.89.16.28.5.84.78 1.24a.71.71 0 0 0 .94.18 2.26 2.26 0 0 0 1.45-2.07v-4.8c0-.9.15-1.8.18-2.7v-7.47C4.65 9.09 4.4 7 4.21 4.93c-.07-.78-.06-1.57-.07-2.35a.86.86 0 0 1 .1-.32Z"/><path d="M3.93 29.86h-.32a4.349 4.349 0 0 1-3.16-1.67 1.76 1.76 0 0 1 .26-2.6l.42-.43.44.83c.11.2.2.39.31.58.27.44.5.83.76 1.21.06.08.1.09.15.09a.67.67 0 0 0 .27-.07 1.8 1.8 0 0 0 1.17-1.66v-4.78c0-.48 0-.95.1-1.42s.07-.85.08-1.28v-4.28a1.49 1.49 0 0 1 0-.25v-3c-.1-1.16-.22-2.31-.34-3.47C4 6.82 3.85 5.89 3.77 5c-.06-.64-.06-1.28-.07-1.9v-.52a1.07 1.07 0 0 1 .12-.45l.1-.3h4.1a15.23 15.23 0 0 0 2.28-.2 28.38 28.38 0 0 1 4.57-.32H16c.145.008.289.028.43.06l.84.15-.41.88c-.12.26-.23.49-.35.71-.43.74-.86 1.47-1.32 2.18l-.07.11c-.53.85-1.12 1.73-1.75 2.6-.88 1.09-1.83 1-2.67-.18a1.377 1.377 0 0 1-.1-.22l-.12-.31.1-.18a9.736 9.736 0 0 1 1.13-1.53c.396-.456.757-.94 1.08-1.45h-.3c-.7 0-1.34.09-2 .17-1.26.14-2.55.34-3.79.52-.34 0-.4.08-.42.1a1.73 1.73 0 0 0-.06.34v2.21c0 1.33.09 2.66.16 4 .1 1.64.24 3.3.38 4.9l.07.73c.212 2.45.276 4.912.19 7.37a21.888 21.888 0 0 1-.35 2.91 2.52 2.52 0 0 1-2.74 2.48Zm-1.4-1.14c.353.16.733.255 1.12.28 1.4.06 2-.34 2.2-1.73.173-.925.287-1.86.34-2.8A61 61 0 0 0 6 17.19l-.07-.73c-.14-1.61-.28-3.28-.38-4.92-.08-1.34-.12-2.68-.17-4L5.34 6a6.001 6.001 0 0 1 0-.85c.1-.77.36-1.05 1.17-1.15 1.32-.19 2.61-.38 3.89-.53.66-.08 1.32-.12 2-.17l1.08-.08.73-.05-.3.66a9.001 9.001 0 0 1-1.56 2.33c-.335.381-.642.786-.92 1.21.46.69.74.69 1.22.07.62-.8 1.19-1.67 1.74-2.51l.07-.11c.45-.68.87-1.41 1.28-2.12l.25-.5h-1.14a26.67 26.67 0 0 0-4.43.32c-.79.127-1.59.197-2.39.21H4.58v.36c0 .6 0 1.23.06 1.83.09.92.18 1.84.28 2.76.12 1.16.25 2.32.34 3.48.033.666.033 1.334 0 2v.94a1.48 1.48 0 0 1 0 .26v4.27c0 .45 0 .89-.09 1.33-.09.44-.08.91-.09 1.37v4.78a2.69 2.69 0 0 1-1.73 2.48 1.499 1.499 0 0 1-.59.13 2.052 2.052 0 0 1-.23 0Zm-1.53-2a.76.76 0 0 0 .16.9c.283.346.62.643 1 .88a1.068 1.068 0 0 1-.2-.22c-.27-.39-.52-.81-.76-1.22l-.2-.34ZM138.93 16.89a7.35 7.35 0 0 0-.34 1 24.02 24.02 0 0 1-2.19 6.49c-.55 1.09-1.06 2.19-1.62 3.28-.44.84-.75.95-1.89.69.08-.32.11-.65.22-1 .74-2.09 1.54-4.15 2.21-6.25.79-2.43 1.49-4.89 2.2-7.35.11-.324.11-.676 0-1-1-2.18-2-4.33-3-6.5a29.116 29.116 0 0 0-2.58-3.92c-.39-.59-.47-.9-.13-1.21a1.13 1.13 0 0 1 1.48.22c.211.279.389.58.53.9.76 1.6 1.48 3.22 2.27 4.81 1.08 2.15 2.2 4.29 3.32 6.43 1.77 3.4 3.56 6.79 5.3 10.2.6 1.17 1.08 2.39 1.59 3.6a.845.845 0 0 1 0 .7c-.24.28-.57.07-.77-.12a4.406 4.406 0 0 1-.85-1c-.27-.48-.501-.982-.69-1.5a43.795 43.795 0 0 0-3.87-7.12c-.31-.48-.63-1-1-1.44h-.23"/><path d="M133.73 29a3.934 3.934 0 0 1-.93-.14l-.43-.1.09-.42c.031-.098.051-.198.06-.3.045-.244.105-.484.18-.72.26-.74.53-1.48.8-2.22.48-1.31 1-2.67 1.41-4 .71-2.22 1.37-4.5 2-6.7l.18-.64a1.177 1.177 0 0 0 0-.7c-.68-1.53-1.38-3.06-2.08-4.58l-.89-1.92a15.698 15.698 0 0 0-1.68-2.65c-.29-.4-.59-.8-.86-1.21-.27-.41-.77-1.15-.06-1.78a1.62 1.62 0 0 1 2.12.28c.229.311.424.646.58 1l.84 1.79c.47 1 .93 2 1.43 3 .85 1.72 1.74 3.42 2.63 5.12l.68 1.31 1.77 3.39c1.187 2.273 2.367 4.547 3.54 6.82.51 1 .94 2.06 1.37 3.07l.22.55a1.245 1.245 0 0 1-.08 1.16c-.34.39-.9.38-1.4-.09a5.114 5.114 0 0 1-.92-1.07 10.904 10.904 0 0 1-.72-1.55 44.582 44.582 0 0 0-3.84-7.06l-.62-.94a2.37 2.37 0 0 0-.1.36 24.4 24.4 0 0 1-2.23 6.62L136.1 26c-.31.63-.61 1.27-.93 1.89-.32.62-.69 1.11-1.44 1.11Zm-.32-.91h.32c.24 0 .37 0 .66-.58.29-.58.62-1.24.92-1.87.23-.47.46-.94.7-1.41a23.75 23.75 0 0 0 2.15-6.37c.056-.27.136-.534.24-.79l.12-.31.1-.32h.78l.42.63.66 1a43.566 43.566 0 0 1 3.9 7.18c.187.496.411.977.67 1.44.213.332.472.631.77.89l.11.09c.005-.06.005-.12 0-.18l-.23-.55c-.41-1-.84-2-1.33-3-1.173-2.273-2.353-4.54-3.54-6.8L139 13.76l-.68-1.3c-.89-1.71-1.78-3.42-2.64-5.14-.5-1-1-2-1.44-3-.27-.6-.55-1.19-.83-1.79a5.476 5.476 0 0 0-.49-.82.772.772 0 0 0-.84-.15c-.08.07-.13.12.21.63.34.51.55.79.84 1.18a16.081 16.081 0 0 1 1.77 2.81l.88 1.91a550.1 550.1 0 0 1 2.09 4.59c.161.416.179.873.05 1.3l-.18.64c-.64 2.21-1.3 4.5-2 6.73-.44 1.36-.94 2.72-1.42 4-.27.73-.53 1.47-.8 2.21a4.109 4.109 0 0 0-.11.49v.04ZM38.91.56c.57 1 1.09 1.92 1.63 2.84 1.19 2 2.38 4.07 3.6 6.08a27.36 27.36 0 0 1 3 5.71c.5 1.57 1.25 3.06 1.91 4.59 1.153 2.667 2.31 5.333 3.47 8 0 .08 0 .17.07.28a.54.54 0 0 1-.93-.11 18.997 18.997 0 0 1-1.28-2.17c-1-2-1.88-4.06-2.78-6.1-.37-.85-.65-1.74-1-2.62a6.78 6.78 0 0 0-1.43-2.57 5.85 5.85 0 0 0-.49-.41 5.807 5.807 0 0 0-.27.61c-.7 1.88-1.504 3.72-2.41 5.51-.49 1.1-.78 2.3-1.17 3.46-.39 1.16-.87 2.59-1.33 3.87a8.2 8.2 0 0 1-.5.92.458.458 0 0 1-.66.23.792.792 0 0 1-.33-.53c.012-.288.073-.572.18-.84.38-1.19.88-2.34 1.16-3.55a69.601 69.601 0 0 1 2.5-8c.29-.639.625-1.257 1-1.85.17-.31.36-.6.54-.9a1.3 1.3 0 0 0 0-1.45 49.37 49.37 0 0 1-2.51-5c-.45-1.13-1.14-2.16-1.7-3.24-.31-.62-.59-1.25-.87-1.89-.21-.48.11-.68.63-.91"/><path d="M38.61 29.18a.88.88 0 0 1-.44-.12 1.16 1.16 0 0 1-.55-.89 2.681 2.681 0 0 1 .19-1c.13-.41.28-.81.42-1.22.287-.752.53-1.52.73-2.3a70.778 70.778 0 0 1 2.52-8c.192-.498.43-.976.71-1.43l.27-.49c.12-.22.25-.44.39-.66l.16-.25a.91.91 0 0 0 0-1l-.4-.74a38.122 38.122 0 0 1-2.14-4.29c-.285-.69-.62-1.358-1-2-.22-.38-.44-.77-.64-1.17-.31-.6-.59-1.23-.86-1.84-.43-1 .42-1.37.83-1.55l.29-.23.71 1.23 1.12 2 .66 1.12c1 1.66 1.94 3.32 2.93 5L45 10a23.9 23.9 0 0 1 2.57 5.1 29.872 29.872 0 0 0 1.33 3.27c.19.42.38.85.56 1.27.72 1.68 1.45 3.35 2.18 5l1.29 3c.032.08.055.165.07.25l.09.35-.19.18a1.15 1.15 0 0 1-.75.33 1 1 0 0 1-.85-.53l-.16-.25a19.14 19.14 0 0 1-1.15-2c-.9-1.91-1.81-3.91-2.78-6.12-.33-.75-.59-1.54-.85-2.3l-.12-.35a6.16 6.16 0 0 0-1.33-2.41 35.129 35.129 0 0 1-1.72 4.13c-.22.48-.45.95-.67 1.44a21.15 21.15 0 0 0-.78 2.24c-.12.4-.24.79-.37 1.18-.44 1.3-.88 2.59-1.34 3.88-.092.238-.21.466-.35.68-.06.1-.12.2-.17.3a.94.94 0 0 1-.9.54Zm0-28v.09c.29.65.56 1.27.86 1.85.2.39.41.76.62 1.14.416.687.784 1.402 1.1 2.14a38.18 38.18 0 0 0 2.09 4.2l.4.74a1.75 1.75 0 0 1 0 1.89l-.17.27c-.12.2-.25.4-.36.61l-.28.5a8.13 8.13 0 0 0-.64 1.29 69.116 69.116 0 0 0-2.5 7.93 23.882 23.882 0 0 1-.75 2.4c-.15.39-.29.79-.42 1.19a2 2 0 0 0-.15.68.45.45 0 0 0 .11.17l.25-.39a3 3 0 0 0 .27-.53c.46-1.28.9-2.57 1.34-3.86.13-.38.24-.77.36-1.15.25-.8.555-1.581.91-2.34.21-.49.44-1 .67-1.45a37.571 37.571 0 0 0 1.68-4c.054-.15.118-.297.19-.44l.34-.73.61.5c.128.09.245.194.35.31A6.89 6.89 0 0 1 47 16.91l.11.35c.25.74.51 1.51.82 2.23 1 2.2 1.87 4.19 2.77 6.1.33.644.697 1.268 1.1 1.87l.1.15L50.79 25l-2.18-5-.56-1.26a32.85 32.85 0 0 1-1.37-3.36 22.212 22.212 0 0 0-2.48-4.91l-.44-.71c-1-1.65-2-3.3-2.94-5l-.65-1.12c-.38-.64-.75-1.29-1.14-2l-.29-.52a.25.25 0 0 0-.09.09l-.04-.03ZM167.19 1.65c.82-.14 1.2.07 1.26.71.312 2.132.439 4.286.38 6.44-.18 2.49-.38 5-.47 7.48a26.627 26.627 0 0 0 .21 4.09c.277 2.747.363 5.51.26 8.27 0 .39-.07.71-.53.75-.46.04-.65-.28-.71-.62-.18-1-.32-2-.44-3-.05-.43 0-.88 0-1.31 0-3.26-.13-6.51-.16-9.77 0-1.83 0-3.67.05-5.5 0-.81.16-1.62.17-2.43V1.65"/><path d="M168.22 29.84a1.072 1.072 0 0 1-1.06-1c-.17-.91-.31-1.9-.44-3a5.41 5.41 0 0 1 0-.9v-.45l-.06-3.14c0-2.21-.09-4.43-.11-6.63 0-2 0-3.9.05-5.52 0-.41 0-.83.08-1.24.08-.41.08-.79.09-1.19V1.29l.37-.07c.165-.03.332-.046.5-.05a1.157 1.157 0 0 1 1.169.682c.066.148.1.307.101.468 0 .41.08.81.13 1.22.24 1.753.323 3.523.25 5.29l-.06.71c-.16 2.22-.33 4.5-.41 6.75a26.737 26.737 0 0 0 .2 4 59.86 59.86 0 0 1 .27 8.34c0 .72-.32 1.12-.93 1.18l-.14.03Zm-.59-27.79v4.71c0 .42 0 .84-.09 1.26-.09.42-.08.78-.09 1.17 0 1.61-.07 3.52 0 5.49 0 2.2.06 4.41.1 6.62l.06 3.14v.49c-.02.26-.02.52 0 .78.13 1.11.27 2.08.43 3 0 .27.14.27.2.27v.44-.44a.189.189 0 0 0 .1 0s0-.06.05-.29c.099-2.743.009-5.49-.27-8.22a26.056 26.056 0 0 1-.2-4.16c.08-2.26.24-4.56.41-6.78v-.72a28.296 28.296 0 0 0-.24-5.13c-.05-.41-.09-.81-.13-1.22-.04-.41-.04-.41-.33-.41ZM170.16 2.06a1.62 1.62 0 0 1 1.85.23 8.576 8.576 0 0 1 3 3.51 24.214 24.214 0 0 1 1.63 5.05 8.134 8.134 0 0 1 0 3 17.91 17.91 0 0 1-2.25 6.29 4.218 4.218 0 0 1-2.21 1.86 1.43 1.43 0 0 1 0-1.2 2.7 2.7 0 0 1 .37-.69 14.09 14.09 0 0 0 2.32-7.11c.083-.72.117-1.445.1-2.17a8.994 8.994 0 0 0-.78-2.83c-.647-1.593-1.678-3-3-4.1a3.56 3.56 0 0 1-1-1.84"/><path d="m172 22.56-.17-.34a1.851 1.851 0 0 1 0-1.55c.106-.282.251-.548.43-.79 1.43-1.92 1.92-4.15 2.23-6.91.075-.704.105-1.412.09-2.12a6.42 6.42 0 0 0-.59-2.25l-.16-.44a9.806 9.806 0 0 0-2.88-3.93 4.139 4.139 0 0 1-1.17-2.05l-.1-.35.33-.16a2 2 0 0 1 2.32.28 8.903 8.903 0 0 1 3.17 3.68 25.289 25.289 0 0 1 1.66 5.14 8.77 8.77 0 0 1 0 3.19 18.337 18.337 0 0 1-2.31 6.44 4.573 4.573 0 0 1-2.49 2l-.36.16Zm-1.3-20.24c.145.48.418.913.79 1.25a10.696 10.696 0 0 1 3.11 4.28l.16.43c.367.808.587 1.675.65 2.56.011.742-.022 1.483-.1 2.22a14.469 14.469 0 0 1-2.4 7.34c-.127.18-.231.375-.31.58-.06.143-.098.295-.11.45a3.882 3.882 0 0 0 1.58-1.5 17.503 17.503 0 0 0 2.19-6.14 7.91 7.91 0 0 0 0-2.87A24.463 24.463 0 0 0 174.65 6a8.075 8.075 0 0 0-2.91-3.35 1.296 1.296 0 0 0-1.04-.33ZM7.41 15c.28 0 .46-.11.59-.06a7.39 7.39 0 0 1 2.46 1.27A16 16 0 0 1 13 18.6a7 7 0 0 1 .76 7.32 5.09 5.09 0 0 1-1.2 1.78c-.37.482-.704.99-1 1.52a5.357 5.357 0 0 1-1.08 1.1c-.34.26-.65.05-.59-.37a2.35 2.35 0 0 1 .31-1c.56-1.043.933-2.177 1.1-3.35.05-.342.138-.677.26-1a4.5 4.5 0 0 0 .12-3.15 10.419 10.419 0 0 0-.58-1.82 7.996 7.996 0 0 0-1-1.61c-.82-1-1.7-2-2.67-3.06"/><path d="M10.13 30.87a.71.71 0 0 1-.54-.25.91.91 0 0 1-.19-.73 2.69 2.69 0 0 1 .38-1.18c.463-.78.778-1.637.93-2.53 0-.23.1-.46.16-.69.03-.102.053-.205.07-.31.042-.268.116-.53.22-.78a4 4 0 0 0 .09-2.85 10.46 10.46 0 0 0-.55-1.75 7.5 7.5 0 0 0-1-1.51c-.57-.7-1.17-1.38-1.81-2.09l-1.37-1.6.84-.09h.23a1 1 0 0 1 .57 0l.23.09c.86.273 1.663.7 2.37 1.26l.54.48a12.075 12.075 0 0 1 2 2 7.45 7.45 0 0 1 .81 7.75c-.298.72-.74 1.37-1.3 1.91a3.85 3.85 0 0 0-.53.77 6.256 6.256 0 0 1-.43.7 6.617 6.617 0 0 1-1.17 1.19.9.9 0 0 1-.55.21ZM8.54 15.56c.65.73 1.26 1.42 1.84 2.13.43.517.79 1.089 1.07 1.7.265.612.469 1.248.61 1.9a4.85 4.85 0 0 1-.06 3.49c-.07.184-.12.375-.15.57 0 .12-.05.24-.08.36s-.11.45-.16.67a7.83 7.83 0 0 1-1.11 2.82 1.83 1.83 0 0 0-.21.66c.321-.265.61-.567.86-.9.139-.19.262-.39.37-.6a3.82 3.82 0 0 1 .69-1 4.82 4.82 0 0 0 1.1-1.64 6.53 6.53 0 0 0-.72-6.9A11.385 11.385 0 0 0 10.73 17l-.56-.48a5.16 5.16 0 0 0-1.63-.96ZM171.83 13.16c-.83 0-1.19-.35-1.17-1.06.02-.71.53-1.64 1-1.62A1.682 1.682 0 0 1 173 12a1.078 1.078 0 0 1-.711 1.062 1.07 1.07 0 0 1-.449.058"/><path d="M171.87 13.6h-.05a1.7 1.7 0 0 1-1.25-.45 1.442 1.442 0 0 1-.35-1.07c0-1 .63-2 1.46-2a1.765 1.765 0 0 1 1.24.69c.325.363.507.833.51 1.32a1.5 1.5 0 0 1-1.56 1.51Zm-.19-2.68c-.17 0-.56.5-.58 1.19a.64.64 0 0 0 .1.44.93.93 0 0 0 .64.17v.44-.44a.637.637 0 0 0 .647-.427.635.635 0 0 0 .033-.273 1.224 1.224 0 0 0-.3-.72.998.998 0 0 0-.57-.38h.03ZM10.12 22.43A1.44 1.44 0 0 1 9 23.62a.609.609 0 0 1-.52-.88c.2-.318.462-.594.77-.81a.56.56 0 0 1 .86.5"/><path d="M9 24.06a1 1 0 0 1-.88-1.55c.226-.37.526-.69.88-.94a1 1 0 0 1 .55-.18 1 1 0 0 1 1 1 1.64 1.64 0 0 1-.5 1.09 1.63 1.63 0 0 1-1 .55l-.05.03Zm.56-1.79a2.09 2.09 0 0 0-.69.7v.12c0 .04.09.1.11.1a.76.76 0 0 0 .42-.28.91.91 0 0 0 .27-.46c.01-.12-.07-.18-.11-.18Z"/></g><defs><clipPath id="a"><path fill="#fff" d="M0 0h178v32H0z"/></clipPath></defs></svg>