<svg width="22" height="18" fill="none" xmlns="http://www.w3.org/2000/svg"><path fill-rule="evenodd" clip-rule="evenodd" d="M1.512 7.749c5.906-2.54 9.844-4.215 11.814-5.024C18.952.415 20.121.013 20.883 0c.168-.003.542.038.785.233.205.164.261.386.288.541.027.156.06.51.034.788-.305 3.162-1.624 10.837-2.295 14.379-.284 1.498-.843 2-1.384 2.05-1.177.107-2.07-.767-3.21-1.505-1.782-1.154-2.79-1.872-4.52-2.998-2-1.301-.704-2.016.436-3.185.298-.306 5.482-4.96 5.582-5.383.012-.053.024-.25-.094-.354-.119-.104-.294-.068-.42-.04-.179.04-3.027 1.899-8.545 5.576-.808.548-1.54.815-2.197.801-.723-.015-2.114-.403-3.149-.735C.926 9.76-.082 9.545.005 8.854c.046-.36.548-.729 1.507-1.105Z" fill="#fff"/></svg>